<mxfile host="app.diagrams.net" modified="2023-08-06T16:10:49.938Z" agent="Mozilla/5.0 (Windows NT 10.0; Win64; x64) AppleWebKit/537.36 (KHTML, like Gecko) Chrome/115.0.0.0 Safari/537.36" etag="VHMXnMmqxPaUCZ458Vq2" version="21.6.6" type="device">
  <diagram name="Trang-1" id="3IjvZ3ZpfyvuMgLv2XCV">
    <mxGraphModel dx="1969" dy="922" grid="1" gridSize="10" guides="1" tooltips="1" connect="1" arrows="1" fold="1" page="1" pageScale="1" pageWidth="827" pageHeight="1169" math="0" shadow="0">
      <root>
        <mxCell id="0" />
        <mxCell id="1" parent="0" />
        <mxCell id="x_hYXnuxHA1muzqUtF35-1" value="&lt;font style=&quot;font-size: 16px;&quot;&gt;&lt;b&gt;&lt;font style=&quot;font-size: 16px;&quot; face=&quot;Times New Roman&quot;&gt;&lt;i&gt;&lt;u&gt;Key Partnerships&lt;br&gt;&lt;/u&gt;&lt;/i&gt;(&lt;/font&gt;&lt;/b&gt;quan hệ đối tác quan trọng&lt;font style=&quot;font-size: 16px;&quot; face=&quot;Times New Roman&quot;&gt;&lt;b&gt;)&lt;/b&gt;&lt;br&gt;&lt;br&gt;&lt;div style=&quot;&quot;&gt;&lt;b&gt;Big Banks:&amp;nbsp;&lt;/b&gt;traditionally&amp;nbsp;&lt;span style=&quot;background-color: initial;&quot;&gt;pariner with entities&amp;nbsp;&lt;/span&gt;&lt;span style=&quot;background-color: initial;&quot;&gt;and groups at&amp;nbsp;&lt;/span&gt;&lt;span style=&quot;background-color: initial;&quot;&gt;a national and&amp;nbsp;&lt;/span&gt;&lt;span style=&quot;background-color: initial;&quot;&gt;international level that&lt;/span&gt;&lt;/div&gt;&lt;div style=&quot;&quot;&gt;allow them to expand&amp;nbsp;&lt;span style=&quot;background-color: initial;&quot;&gt;their footprint&lt;/span&gt;&lt;b style=&quot;background-color: initial;&quot;&gt;.&lt;/b&gt;&lt;/div&gt;&lt;div style=&quot;&quot;&gt;&lt;b style=&quot;background-color: initial;&quot;&gt;(&lt;/b&gt;&lt;span style=&quot;background-color: initial;&quot;&gt;Các ngân hàng lớn: theo truyền thống, ngang hàng với các thực thể và nhóm ở cấp quốc gia và quốc tế cho phép họ mở rộng dấu ấn của mình.&lt;/span&gt;&lt;b style=&quot;background-color: initial;&quot;&gt;)&lt;/b&gt;&lt;/div&gt;&lt;div style=&quot;&quot;&gt;&lt;b style=&quot;background-color: initial;&quot;&gt;&lt;br&gt;&lt;/b&gt;&lt;/div&gt;&lt;div style=&quot;&quot;&gt;&lt;div style=&quot;&quot;&gt;&lt;b&gt;Local Credit Unions:&amp;nbsp;&lt;/b&gt;&lt;span style=&quot;background-color: initial;&quot;&gt;have a different&amp;nbsp;&lt;/span&gt;&lt;span style=&quot;background-color: initial;&quot;&gt;Structure and tend t&lt;/span&gt;&lt;span style=&quot;background-color: initial;&quot;&gt;o partner more with&amp;nbsp;&lt;/span&gt;&lt;span style=&quot;background-color: initial;&quot;&gt;entities and groups at&amp;nbsp;&lt;/span&gt;&lt;span style=&quot;background-color: initial;&quot;&gt;the looal provinoial/&amp;nbsp;&lt;/span&gt;&lt;span style=&quot;background-color: initial;&quot;&gt;state level.&lt;/span&gt;&lt;/div&gt;&lt;div style=&quot;&quot;&gt;(&lt;span style=&quot;background-color: initial;&quot;&gt;Các hiệp hội tín dụng địa phương: có Cấu trúc khác và có xu hướng hợp tác nhiều hơn với các tổ chức và nhóm ở cấp tỉnh/bang lỏng lẻo.&lt;/span&gt;&lt;span style=&quot;background-color: initial;&quot;&gt;)&lt;/span&gt;&lt;/div&gt;&lt;/div&gt;&lt;div style=&quot;&quot;&gt;&lt;br&gt;&lt;/div&gt;&lt;div style=&quot;&quot;&gt;&lt;div style=&quot;&quot;&gt;&lt;b&gt;Fintechs:&amp;nbsp;&lt;/b&gt; typically start&amp;nbsp;&lt;span style=&quot;background-color: initial;&quot;&gt;in speoific markets and&lt;/span&gt;&lt;/div&gt;&lt;div style=&quot;&quot;&gt;look for partners who&amp;nbsp;&lt;span style=&quot;background-color: initial;&quot;&gt;give themregulatory&amp;nbsp;&lt;/span&gt;&lt;/div&gt;&lt;div style=&quot;&quot;&gt;&lt;span style=&quot;background-color: initial;&quot;&gt;advantages&amp;nbsp;&lt;/span&gt;&lt;span style=&quot;background-color: initial;&quot;&gt;or access t&lt;/span&gt;&lt;span style=&quot;background-color: initial;&quot;&gt;o consumers in new&amp;nbsp;&lt;/span&gt;&lt;span style=&quot;background-color: initial;&quot;&gt;markets.&lt;/span&gt;&lt;/div&gt;&lt;/div&gt;&lt;div style=&quot;&quot;&gt;(C&lt;span style=&quot;background-color: transparent; font-family: inherit;&quot;&gt;&lt;font style=&quot;font-size: 16px;&quot;&gt;ông nghệ tài chính&amp;nbsp;&lt;/font&gt;&lt;/span&gt;&lt;span style=&quot;background-color: initial;&quot;&gt;: thường bắt đầu ở các thị trường giả mạo và tìm kiếm các đối tác mang lại cho họ lợi thế về quy định hoặc tiếp cận người tiêu dùng ở các thị trường mới.&lt;/span&gt;&lt;span style=&quot;background-color: initial;&quot;&gt;)&lt;/span&gt;&lt;/div&gt;&lt;/font&gt;&lt;/font&gt;" style="rounded=0;whiteSpace=wrap;html=1;align=center;" parent="1" vertex="1">
          <mxGeometry y="80" width="280" height="800" as="geometry" />
        </mxCell>
        <mxCell id="x_hYXnuxHA1muzqUtF35-2" value="Banking Canvas" style="rounded=1;whiteSpace=wrap;html=1;" parent="1" vertex="1">
          <mxGeometry width="1440" height="60" as="geometry" />
        </mxCell>
        <mxCell id="x_hYXnuxHA1muzqUtF35-3" value="&lt;b&gt;&lt;i&gt;&lt;u&gt;Key Resouroes&lt;br&gt;&lt;/u&gt;&lt;/i&gt;(&lt;/b&gt;Tài nguyên chính&lt;b&gt;)&lt;/b&gt;&lt;br&gt;&lt;br&gt;&lt;div style=&quot;&quot;&gt;&lt;b&gt;Brand, Balance Sheet,&lt;/b&gt;&lt;/div&gt;&lt;div style=&quot;&quot;&gt;&lt;b&gt;Digital Platform&lt;/b&gt;&lt;/div&gt;&lt;div style=&quot;&quot;&gt;&lt;b&gt;(&amp;nbsp;&lt;/b&gt;&lt;span style=&quot;background-color: initial;&quot;&gt;Thương hiệu, Bảng cân đối kế toán, Nền tảng kỹ thuật số&lt;/span&gt;&lt;b style=&quot;background-color: initial;&quot;&gt;)&lt;/b&gt;&lt;/div&gt;&lt;div style=&quot;&quot;&gt;&lt;b&gt;&lt;br&gt;&lt;/b&gt;&lt;/div&gt;&lt;div style=&quot;&quot;&gt;+ Brand trustis a key&lt;/div&gt;&lt;div style=&quot;&quot;&gt;resouroe for banks&lt;/div&gt;&lt;div style=&quot;&quot;&gt;(&amp;nbsp;&lt;span style=&quot;background-color: initial;&quot;&gt;Uy tín thương hiệu là nguồn lực quan trọng của ngân hàng&lt;/span&gt;&lt;span style=&quot;background-color: initial;&quot;&gt;)&lt;/span&gt;&lt;/div&gt;&lt;div style=&quot;&quot;&gt;&lt;br&gt;&lt;/div&gt;&lt;div style=&quot;&quot;&gt;+ Capital to invest&lt;/div&gt;&lt;div style=&quot;&quot;&gt;in new ventures or.&lt;/div&gt;&lt;div style=&quot;&quot;&gt;make aoquisitions is&lt;/div&gt;&lt;div style=&quot;&quot;&gt;an advaniage&lt;/div&gt;&lt;div style=&quot;&quot;&gt;(Vốn để đầu tư vào liên doanh mới hoặc. đưa ra yêu cầu là một lợi thế)&lt;/div&gt;&lt;div style=&quot;&quot;&gt;&lt;br&gt;&lt;/div&gt;&lt;div style=&quot;&quot;&gt;+ Digital platform&lt;/div&gt;&lt;div style=&quot;&quot;&gt;allows rapid soaling&lt;/div&gt;&lt;div style=&quot;&quot;&gt;(&amp;nbsp;&lt;span style=&quot;background-color: initial;&quot;&gt;Nền tảng kỹ thuật số cho phép soal nhanh chóng&lt;/span&gt;&lt;span style=&quot;background-color: initial;&quot;&gt;)&lt;/span&gt;&lt;/div&gt;" style="rounded=0;whiteSpace=wrap;html=1;align=center;" parent="1" vertex="1">
          <mxGeometry x="290" y="80" width="230" height="410" as="geometry" />
        </mxCell>
        <mxCell id="x_hYXnuxHA1muzqUtF35-5" value="&lt;div&gt;&lt;u style=&quot;&quot;&gt;&lt;b style=&quot;&quot;&gt;&lt;i&gt;Key Activities&lt;/i&gt;&lt;/b&gt;&lt;/u&gt;&lt;/div&gt;&lt;div&gt;&lt;b&gt;(&lt;/b&gt;Hoạt động chính&lt;b&gt;)&lt;/b&gt;&lt;/div&gt;&lt;div&gt;&lt;b&gt;&lt;br&gt;&lt;/b&gt;&lt;/div&gt;&lt;div&gt;&lt;b&gt;Tech Innovation, M&amp;amp;A,&lt;/b&gt;&lt;/div&gt;&lt;div&gt;&lt;b&gt;Partnerships&lt;/b&gt;&lt;/div&gt;&lt;div style=&quot;&quot;&gt;&lt;b&gt;(&amp;nbsp;&lt;/b&gt;&lt;span style=&quot;background-color: initial;&quot;&gt;Đổi mới công nghệ, M&amp;amp;A, Quan hệ đối tác&amp;nbsp;&lt;/span&gt;&lt;b style=&quot;background-color: initial;&quot;&gt;)&lt;/b&gt;&lt;/div&gt;&lt;div&gt;&lt;br&gt;&lt;/div&gt;&lt;div&gt;+ Design of new&lt;/div&gt;&lt;div&gt;digital producis and&lt;/div&gt;&lt;div&gt;better UX is key&lt;/div&gt;&lt;div&gt;(Thiết kế các sản phẩm kỹ thuật số mới và UX tốt hơn là chìa khóa)&lt;/div&gt;&lt;div&gt;&lt;br&gt;&lt;/div&gt;&lt;div&gt;+ M&amp;amp;A will help the&lt;/div&gt;&lt;div&gt;industry consolidate&lt;/div&gt;&lt;div&gt;and improve&lt;/div&gt;&lt;div&gt;products/services&lt;/div&gt;&lt;div&gt;(M&amp;amp;A sẽ giúp ngành củng cố và hoàn thiện sản phẩm/dịch vụ)&lt;/div&gt;&lt;div&gt;&lt;br&gt;&lt;/div&gt;&lt;div&gt;+ Partnerships are&lt;/div&gt;&lt;div&gt;key for expansion&lt;/div&gt;&lt;div&gt;(Quan hệ đối tác là chìa khóa để mở rộng)&lt;/div&gt;" style="rounded=0;whiteSpace=wrap;html=1;align=center;" parent="1" vertex="1">
          <mxGeometry x="290" y="500" width="230" height="380" as="geometry" />
        </mxCell>
        <mxCell id="x_hYXnuxHA1muzqUtF35-6" value="&lt;div style=&quot;font-size: 16px;&quot;&gt;&lt;font color=&quot;#ff9933&quot; style=&quot;font-size: 16px;&quot;&gt;&lt;b&gt;&lt;i&gt;&lt;u&gt;Value&amp;nbsp;&lt;span style=&quot;background-color: initial;&quot;&gt;Proposition&lt;/span&gt;&lt;/u&gt;&lt;/i&gt;&lt;/b&gt;&lt;/font&gt;&lt;/div&gt;&lt;div style=&quot;font-size: 16px;&quot;&gt;&lt;span style=&quot;background-color: initial;&quot;&gt;&lt;font style=&quot;font-size: 16px;&quot;&gt;&lt;b&gt;(&lt;/b&gt;Đề xuất giá trị)&lt;br&gt;&lt;/font&gt;&lt;/span&gt;&lt;/div&gt;&lt;div style=&quot;font-size: 16px;&quot;&gt;&lt;font style=&quot;font-size: 16px;&quot;&gt;&lt;br&gt;&lt;/font&gt;&lt;/div&gt;&lt;div style=&quot;font-size: 16px;&quot;&gt;&lt;font style=&quot;font-size: 16px;&quot;&gt;&lt;br&gt;&lt;/font&gt;&lt;/div&gt;&lt;div style=&quot;font-size: 16px;&quot;&gt;&lt;font style=&quot;font-size: 16px;&quot;&gt;&lt;b&gt;Provide retail and&amp;nbsp;&amp;nbsp;&lt;/b&gt;&lt;b style=&quot;background-color: initial;&quot;&gt;commercial banking&amp;nbsp;&lt;/b&gt;&lt;/font&gt;&lt;/div&gt;&lt;div style=&quot;font-size: 16px;&quot;&gt;&lt;font style=&quot;font-size: 16px;&quot;&gt;&lt;b&gt;Services to citizens at&amp;nbsp;&lt;/b&gt;&lt;b style=&quot;background-color: initial;&quot;&gt;a local, national, and&amp;nbsp;&lt;/b&gt;&lt;/font&gt;&lt;/div&gt;&lt;div style=&quot;font-size: 16px;&quot;&gt;&lt;b&gt;&lt;font style=&quot;font-size: 16px;&quot;&gt;international level.&lt;/font&gt;&lt;/b&gt;&lt;/div&gt;&lt;font style=&quot;font-size: 16px;&quot;&gt;Cung cấp Dịch vụ ngân hàng thương mại và bán lẻ cho người dân ở cấp địa phương, quốc gia và quốc tế&lt;br&gt;&lt;/font&gt;&lt;div style=&quot;font-size: 16px;&quot;&gt;&lt;b&gt;&lt;font style=&quot;font-size: 16px;&quot;&gt;&lt;br&gt;&lt;/font&gt;&lt;/b&gt;&lt;/div&gt;&lt;div style=&quot;font-size: 16px;&quot;&gt;&lt;ul style=&quot;&quot;&gt;&lt;li style=&quot;&quot;&gt;&lt;font style=&quot;font-size: 16px;&quot;&gt;&lt;span style=&quot;background-color: initial;&quot;&gt;&amp;nbsp;retail banking&amp;nbsp;&lt;/span&gt;&lt;span style=&quot;background-color: initial;&quot;&gt;services including&amp;nbsp;&lt;/span&gt;&lt;span style=&quot;background-color: initial;&quot;&gt;bank aooounts,&amp;nbsp;&lt;/span&gt;loans, credit cards,&amp;nbsp;&lt;span style=&quot;background-color: initial;&quot;&gt;mortgages, and&amp;nbsp;&lt;/span&gt;&lt;span style=&quot;background-color: initial;&quot;&gt;wealih management&amp;nbsp;&lt;/span&gt;&lt;span style=&quot;background-color: initial;&quot;&gt;services&amp;nbsp; &amp;nbsp;&lt;/span&gt;(dịch vụ ngân hàng bán lẻ bao gồm các khoản vay ngân hàng, cho vay, thẻ tín dụng, thế chấp và dịch vụ quản lý tài sản)&lt;/font&gt;&lt;/li&gt;&lt;/ul&gt;&lt;ul style=&quot;&quot;&gt;&lt;li style=&quot;&quot;&gt;&lt;font style=&quot;font-size: 16px;&quot;&gt;&lt;span style=&quot;background-color: initial;&quot;&gt;commercial banking&amp;nbsp;&lt;/span&gt;&lt;span style=&quot;background-color: initial;&quot;&gt;services including&amp;nbsp;&lt;/span&gt;&lt;span style=&quot;background-color: initial;&quot;&gt;business bank&amp;nbsp;&lt;/span&gt;&lt;span style=&quot;background-color: initial;&quot;&gt;acoounis, loans etc&amp;nbsp; &amp;nbsp;(dịch vụ ngân hàng thương mại bao gồm ngân hàng kinh doanh acoounis, cho vay, v.v.)&lt;/span&gt;&lt;/font&gt;&lt;/li&gt;&lt;/ul&gt;&lt;/div&gt;" style="rounded=0;whiteSpace=wrap;html=1;align=center;" parent="1" vertex="1">
          <mxGeometry x="540" y="80" width="360" height="800" as="geometry" />
        </mxCell>
        <mxCell id="x_hYXnuxHA1muzqUtF35-8" value="&lt;b&gt;&lt;i&gt;&lt;u&gt;Customer Relationships&lt;br&gt;&lt;/u&gt;&lt;/i&gt;(&lt;/b&gt;Mối quan hệ khách hàng&lt;b&gt;)&lt;/b&gt;&lt;br&gt;&lt;br&gt;&lt;div style=&quot;&quot;&gt;&lt;b&gt;In - Branch and online&amp;nbsp;&lt;/b&gt;&lt;/div&gt;&lt;div style=&quot;&quot;&gt;&lt;b&gt;(&lt;/b&gt;Tại - Chi nhánh và trực tuyến&lt;b style=&quot;background-color: initial;&quot;&gt;)&lt;/b&gt;&lt;/div&gt;&lt;div style=&quot;&quot;&gt;&lt;b&gt;&lt;br&gt;&lt;/b&gt;&lt;/div&gt;&lt;div style=&quot;&quot;&gt;+ Manyrelationships&amp;nbsp;&lt;/div&gt;with banks are long- term, developed at local branches&lt;div style=&quot;&quot;&gt;(&amp;nbsp;Nhiều mối quan hệ với ngân hàng lâu dài, phát triển tại các chi nhánh địa phương&lt;span style=&quot;background-color: initial;&quot;&gt;)&lt;/span&gt;&lt;/div&gt;&lt;div style=&quot;text-align: left;&quot;&gt;&lt;br&gt;&lt;/div&gt;&lt;div style=&quot;&quot;&gt;&lt;div&gt;+ Online banking&lt;/div&gt;&lt;div&gt;products create need&lt;/div&gt;&lt;div&gt;for 24/7 support&lt;/div&gt;&lt;/div&gt;&lt;div style=&quot;&quot;&gt;(Sản phẩm ngân hàng trực tuyến tạo nhu cầu hỗ trợ 24/7)&lt;/div&gt;&lt;div style=&quot;&quot;&gt;&lt;br&gt;&lt;/div&gt;&lt;div style=&quot;&quot;&gt;&lt;br&gt;&lt;/div&gt;" style="rounded=0;whiteSpace=wrap;html=1;" parent="1" vertex="1">
          <mxGeometry x="920" y="80" width="230" height="410" as="geometry" />
        </mxCell>
        <mxCell id="x_hYXnuxHA1muzqUtF35-9" value="&lt;b&gt;&lt;i&gt;&lt;u&gt;Channels&lt;/u&gt;&lt;/i&gt;&lt;/b&gt;&lt;div&gt;&lt;b style=&quot;background-color: initial;&quot;&gt;(&lt;/b&gt;&lt;span style=&quot;background-color: initial;&quot;&gt;Kênh&amp;nbsp;&lt;/span&gt;&lt;b style=&quot;background-color: initial;&quot;&gt;)&lt;/b&gt;&lt;br&gt;&lt;/div&gt;&lt;div&gt;&lt;b&gt;&lt;br&gt;&lt;/b&gt;&lt;/div&gt;&lt;div&gt;&lt;b&gt;Retail Branches, Online&amp;nbsp;&lt;/b&gt;&lt;br&gt;&lt;/div&gt;&lt;b&gt;Platforms/Apps&lt;/b&gt;&lt;div style=&quot;&quot;&gt;(Chi nhánh bán lẻ, Nền tảng/Ứng dụng trực tuyến)&lt;/div&gt;&lt;div&gt;&lt;br&gt;&lt;/div&gt;&lt;div&gt;+&amp;nbsp;Branches are major.&lt;/div&gt;&lt;div&gt;touchpoint for&lt;/div&gt;&lt;div&gt;relationship banking&lt;/div&gt;&lt;div&gt;(Chi nhánh là chính. điểm tiếp xúc cho ngân hàng quan hệ)&lt;/div&gt;&lt;div&gt;&lt;br&gt;&lt;/div&gt;&lt;div&gt;+&amp;nbsp;Online platforms&lt;/div&gt;&lt;div&gt;Greate low-fee&lt;/div&gt;&lt;div&gt;alternatives &amp;amp;&lt;/div&gt;&lt;div&gt;engagement methods&lt;/div&gt;&lt;div&gt;(Nền tảng trực tuyến Greate lựa chọn thay thế phí thấp &amp;amp; phương pháp tương tác)&lt;/div&gt;&lt;div&gt;&lt;br&gt;&lt;/div&gt;" style="rounded=0;whiteSpace=wrap;html=1;" parent="1" vertex="1">
          <mxGeometry x="920" y="500" width="230" height="380" as="geometry" />
        </mxCell>
        <mxCell id="x_hYXnuxHA1muzqUtF35-10" value="&lt;font style=&quot;font-size: 16px;&quot;&gt;&lt;font style=&quot;font-size: 16px;&quot; face=&quot;Times New Roman&quot;&gt;&lt;b&gt;&lt;i&gt;&lt;u&gt;&lt;font style=&quot;font-size: 16px;&quot;&gt;Customer&amp;nbsp;Segments&lt;/font&gt;&lt;br&gt;&lt;/u&gt;&lt;/i&gt;&lt;/b&gt;&lt;b style=&quot;font-size: 16px;&quot;&gt;(&lt;/b&gt;&lt;/font&gt;Phân khúc khách hàng&lt;font style=&quot;font-size: 16px;&quot; face=&quot;Times New Roman&quot;&gt;&lt;b style=&quot;font-size: 16px;&quot;&gt;)&lt;/b&gt;&lt;br&gt;&lt;br&gt;&lt;div style=&quot;font-size: 16px;&quot;&gt;&lt;div&gt;&lt;b&gt;GenZ &amp;gt; Boomers,&lt;span style=&quot;background-color: initial;&quot;&gt;&amp;nbsp;SMEs&lt;/span&gt;&lt;/b&gt;&lt;/div&gt;&lt;div&gt;&lt;br&gt;&lt;/div&gt;&lt;/div&gt;&lt;font style=&quot;font-size: 16px;&quot;&gt;The younger&amp;nbsp;&lt;/font&gt;&lt;/font&gt;&lt;span style=&quot;font-size: 16px; font-family: &amp;quot;Times New Roman&amp;quot;; background-color: initial;&quot;&gt;generations (Gen&amp;nbsp;&lt;/span&gt;&lt;span style=&quot;font-size: 16px; background-color: initial; font-family: &amp;quot;Times New Roman&amp;quot;;&quot;&gt;Z, Millennials) lean&amp;nbsp;&lt;/span&gt;&lt;span style=&quot;font-size: 16px; font-family: &amp;quot;Times New Roman&amp;quot;; background-color: initial;&quot;&gt;towards mobile&amp;nbsp;&lt;/span&gt;&lt;span style=&quot;font-size: 16px; font-family: &amp;quot;Times New Roman&amp;quot;; background-color: initial;&quot;&gt;produets, creating&amp;nbsp;&lt;/span&gt;&lt;span style=&quot;font-size: 16px; font-family: &amp;quot;Times New Roman&amp;quot;; background-color: initial;&quot;&gt;a need for more&amp;nbsp;&lt;/span&gt;&lt;span style=&quot;font-size: 16px; font-family: &amp;quot;Times New Roman&amp;quot;; background-color: initial;&quot;&gt;digital-first produots&amp;nbsp;&lt;/span&gt;&lt;span style=&quot;font-size: 16px; font-family: &amp;quot;Times New Roman&amp;quot;; background-color: initial;&quot;&gt;&amp;amp;investment tools&lt;br&gt;&lt;/span&gt;&lt;b style=&quot;font-size: 16px; font-family: &amp;quot;Times New Roman&amp;quot;; background-color: initial;&quot;&gt;(&lt;/b&gt;&lt;span style=&quot;background-color: initial;&quot;&gt;&lt;font face=&quot;Times New Roman&quot;&gt;&lt;span style=&quot;font-size: 16px;&quot;&gt;Thế hệ trẻ (Gen Z, Millennials) nghiêng về các sản phẩm di động, tạo ra nhu cầu về các công cụ đầu tư &amp;amp; sản phẩm ưu tiên kỹ thuật số hơn&lt;/span&gt;&lt;/font&gt;&lt;b style=&quot;font-family: &amp;quot;Times New Roman&amp;quot;; font-size: 16px;&quot;&gt;)&lt;/b&gt;&lt;/span&gt;&lt;span style=&quot;font-size: 16px; font-family: &amp;quot;Times New Roman&amp;quot;; background-color: initial;&quot;&gt;&lt;br&gt;&lt;/span&gt;&lt;font style=&quot;font-size: 16px;&quot; face=&quot;Times New Roman&quot;&gt;&lt;div style=&quot;font-size: 16px;&quot;&gt;&lt;b style=&quot;background-color: initial;&quot;&gt;&lt;br&gt;&lt;/b&gt;&lt;/div&gt;&lt;div style=&quot;&quot;&gt;&lt;div style=&quot;font-size: 16px;&quot;&gt;&lt;b style=&quot;font-size: 16px;&quot;&gt;&amp;nbsp;&lt;/b&gt;Gen X and the&amp;nbsp;&lt;span style=&quot;font-size: 16px; background-color: initial;&quot;&gt;Boomers engage&amp;nbsp;&lt;/span&gt;&lt;span style=&quot;background-color: initial; font-size: 16px;&quot;&gt;more with banks&amp;nbsp;&lt;/span&gt;a physical level,&amp;nbsp;&lt;span style=&quot;background-color: initial; font-size: 16px;&quot;&gt;and still require&amp;nbsp;&amp;nbsp;&lt;/span&gt;&lt;span style=&quot;background-color: initial; font-size: 16px;&quot;&gt;human advisors and&amp;nbsp;&lt;/span&gt;&lt;span style=&quot;background-color: initial; font-size: 16px;&quot;&gt;touchpoinis&lt;/span&gt;&lt;/div&gt;&lt;div style=&quot;&quot;&gt;(&lt;span style=&quot;background-color: initial;&quot;&gt;&lt;span style=&quot;font-size: 16px;&quot;&gt;Gen X và Boomers tương tác nhiều hơn với các ngân hàng ở cấp độ vật lý và vẫn yêu cầu cố vấn và người tiếp xúc của con người)&lt;/span&gt;&lt;/span&gt;&lt;/div&gt;&lt;/div&gt;&lt;div style=&quot;font-size: 16px;&quot;&gt;&lt;br&gt;&lt;/div&gt;&lt;div style=&quot;font-size: 16px;&quot;&gt;&lt;div style=&quot;&quot;&gt;&lt;div&gt;SMEs are beooming&amp;nbsp;&lt;span style=&quot;background-color: initial;&quot;&gt;more automated &amp;amp;&amp;nbsp;&lt;/span&gt;&lt;span style=&quot;background-color: initial;&quot;&gt;digital. Fintechs for&amp;nbsp;&lt;/span&gt;&lt;span style=&quot;background-color: initial;&quot;&gt;SMBs are a high-&lt;/span&gt;&lt;/div&gt;&lt;div&gt;growth segment&lt;/div&gt;&lt;/div&gt;&lt;/div&gt;&lt;div style=&quot;&quot;&gt;(&lt;span style=&quot;background-color: initial;&quot;&gt;&lt;span style=&quot;font-size: 16px;&quot;&gt;Các doanh nghiệp vừa và nhỏ đang trở nên tự động hóa và kỹ thuật số hơn. Công nghệ tài chính cho SMB là một phân khúc tăng trưởng cao)&lt;/span&gt;&lt;/span&gt;&lt;/div&gt;&lt;/font&gt;&lt;/font&gt;" style="rounded=0;whiteSpace=wrap;html=1;align=center;" parent="1" vertex="1">
          <mxGeometry x="1160" y="80" width="280" height="800" as="geometry" />
        </mxCell>
        <mxCell id="x_hYXnuxHA1muzqUtF35-11" value="&lt;font style=&quot;font-size: 16px;&quot;&gt;&lt;font style=&quot;font-size: 16px;&quot;&gt;&lt;b style=&quot;color: rgb(255, 153, 51);&quot;&gt;Cost Structure&lt;br&gt;&lt;/b&gt;(Cơ cấu chi phí )&lt;/font&gt;&lt;br&gt;&lt;br&gt;&lt;/font&gt;&lt;div style=&quot;font-size: 16px;&quot;&gt;&lt;font style=&quot;font-size: 16px;&quot;&gt;&lt;b&gt;Branches/Platform:&amp;nbsp; &lt;/b&gt;banks spend a lot of money on their&lt;/font&gt;&lt;/div&gt;&lt;div style=&quot;font-size: 16px;&quot;&gt;&lt;font style=&quot;font-size: 16px;&quot;&gt;retail branches and/or digital platforms for consumers&lt;/font&gt;&lt;/div&gt;&lt;div style=&quot;font-size: 16px;&quot;&gt;&lt;font style=&quot;font-size: 16px;&quot;&gt;(Chi nhánh/Nền tảng: các ngân hàng chi rất nhiều tiền cho các chi nhánh bán lẻ và/hoặc nền tảng kỹ thuật số cho người tiêu dùng)&lt;/font&gt;&lt;/div&gt;&lt;div style=&quot;font-size: 16px;&quot;&gt;&lt;font style=&quot;font-size: 16px;&quot;&gt;&lt;br&gt;&lt;/font&gt;&lt;/div&gt;&lt;div style=&quot;font-size: 16px;&quot;&gt;&lt;font style=&quot;font-size: 16px;&quot;&gt;&lt;b&gt;Operations (Staff, Developers, etc):&amp;nbsp; &lt;/b&gt;running banking&amp;nbsp;&lt;/font&gt;&lt;span style=&quot;background-color: initial;&quot;&gt;Operations requires multi-disciplinary staff, large Dev teams&lt;/span&gt;&lt;/div&gt;&lt;div style=&quot;font-size: 16px;&quot;&gt;&lt;font style=&quot;font-size: 16px;&quot;&gt;(Vận hành (Nhân viên, Nhà phát triển, v.v): vận hành ngân hàng Vận hành đòi hỏi nhân viên đa ngành, đội Dev lớn)&lt;/font&gt;&lt;/div&gt;&lt;div style=&quot;font-size: 16px;&quot;&gt;&lt;font style=&quot;font-size: 16px;&quot;&gt;&lt;br&gt;&lt;/font&gt;&lt;/div&gt;&lt;div style=&quot;font-size: 16px;&quot;&gt;&lt;font style=&quot;font-size: 16px;&quot;&gt;&lt;b&gt;Regulatory/Legal : &lt;/b&gt;huge regulatory barriers exist for upstart&amp;nbsp;&lt;/font&gt;&lt;span style=&quot;background-color: initial;&quot;&gt;Fintechs to get banking lioenses. Large legal teams required.&lt;/span&gt;&lt;/div&gt;&lt;div style=&quot;font-size: 16px;&quot;&gt;&lt;font style=&quot;font-size: 16px;&quot;&gt;(Quy định/Pháp lý: tồn tại các rào cản quy định lớn đối với các Fintech mới nổi để có được các khoản hỗ trợ ngân hàng. Cần có các đội pháp lý lớn.)&lt;/font&gt;&lt;/div&gt;" style="rounded=0;whiteSpace=wrap;html=1;align=left;" parent="1" vertex="1">
          <mxGeometry y="890" width="710" height="350" as="geometry" />
        </mxCell>
        <mxCell id="x_hYXnuxHA1muzqUtF35-12" value="&lt;font style=&quot;font-size: 16px;&quot;&gt;&lt;font style=&quot;font-size: 16px;&quot;&gt;&lt;font style=&quot;font-size: 16px;&quot; color=&quot;#ff9933&quot;&gt;&lt;b&gt;Revenue Streams&lt;br&gt;&lt;/b&gt;&lt;/font&gt;(Những nguồn doanh thu )&lt;/font&gt;&lt;br&gt;&lt;br&gt;&lt;/font&gt;&lt;div style=&quot;&quot;&gt;&lt;div style=&quot;font-size: 16px;&quot;&gt;&lt;font style=&quot;font-size: 16px;&quot;&gt;&lt;b&gt;Net Interest Margin (NIM): &lt;/b&gt;banks biggest profit centers is the&amp;nbsp;&lt;/font&gt;&lt;span style=&quot;background-color: initial;&quot;&gt;Spread between the interest raie they lend money out at and&amp;nbsp;&lt;/span&gt;&lt;span style=&quot;background-color: initial;&quot;&gt;the rate they pay depositors. Average NIM for US banks in 2018 was 3,3%&lt;/span&gt;&lt;/div&gt;&lt;div style=&quot;&quot;&gt;&lt;span style=&quot;background-color: initial;&quot;&gt;&lt;span style=&quot;font-size: 16px;&quot;&gt;(&lt;/span&gt;&lt;font style=&quot;font-size: 16px;&quot;&gt;Tỷ suất lợi nhuận ròng (NIM): Trung tâm lợi nhuận lớn nhất của ngân hàng là Chênh lệch giữa tiền lãi mà họ cho vay và lãi suất họ trả cho người gửi tiền.&amp;nbsp;&lt;/font&gt;&lt;font style=&quot;font-size: 16px;&quot;&gt;NIM trung bình của các ngân hàng Mỹ năm 2018 là 3,3%&lt;/font&gt;&lt;span style=&quot;font-size: 16px;&quot;&gt;)&lt;/span&gt;&lt;br&gt;&lt;/span&gt;&lt;/div&gt;&lt;div style=&quot;font-size: 16px;&quot;&gt;&lt;b&gt;&lt;font style=&quot;font-size: 16px;&quot;&gt;&lt;br&gt;&lt;/font&gt;&lt;/b&gt;&lt;/div&gt;&lt;div style=&quot;font-size: 16px;&quot;&gt;&lt;font style=&quot;font-size: 16px;&quot;&gt;&lt;b&gt;Retail, Commercial, Capital Markets:&amp;nbsp; &lt;/b&gt;banks can also earn&amp;nbsp;&lt;/font&gt;&lt;span style=&quot;background-color: initial;&quot;&gt;money through acoount fees, investment banking, trading, etc.&lt;/span&gt;&lt;/div&gt;&lt;div style=&quot;&quot;&gt;(&lt;span style=&quot;background-color: initial; font-size: 16px;&quot;&gt;Bán lẻ, Thương mại, Thị trường vốn: ngân hàng cũng có thể kiếm tiền thông qua phí tài khoản, ngân hàng đầu tư, giao dịch, v.v.&lt;/span&gt;&lt;span style=&quot;font-size: 16px; background-color: initial;&quot;&gt;)&lt;/span&gt;&lt;/div&gt;&lt;/div&gt;" style="rounded=0;whiteSpace=wrap;html=1;align=left;" parent="1" vertex="1">
          <mxGeometry x="730" y="890" width="710" height="350" as="geometry" />
        </mxCell>
      </root>
    </mxGraphModel>
  </diagram>
</mxfile>
